<!--
  - Copyright 2023 estiven. Use of this source code is governed by the Apache 2.0 license.
  -->

<svg width="209" height="211" viewBox="0 0 209 211" fill="none" xmlns="http://www.w3.org/2000/svg">
<g clip-path="url(#clip0_613_526)">
<path d="M105 183C147.526 183 182 148.526 182 106C182 63.4741 147.526 29 105 29C62.4741 29 28 63.4741 28 106C28 148.526 62.4741 183 105 183Z" fill="#FF9900"/>
<path d="M88.2015 101.052C88.2015 102 88.3068 102.767 88.4873 103.323C88.6978 103.895 88.9535 104.511 89.3144 105.173C89.4498 105.369 89.4949 105.579 89.4949 105.76C89.4949 106.015 89.3445 106.271 89.0137 106.527L87.4045 107.594C87.209 107.73 86.9834 107.82 86.7428 107.82C86.4871 107.82 86.2314 107.685 85.9758 107.459C85.6299 107.083 85.3291 106.692 85.0584 106.256C84.7726 105.76 84.5019 105.263 84.2613 104.752C82.2611 107.113 79.7496 108.286 76.7267 108.286C74.5762 108.286 72.8617 107.67 71.6135 106.451C70.3652 105.218 69.7185 103.579 69.7185 101.534C69.7185 99.3529 70.4855 97.5934 72.0496 96.2549C73.6137 94.9164 75.689 94.2547 78.3209 94.2547C79.1931 94.2547 80.0955 94.3299 81.0279 94.4652C81.9754 94.6006 82.9529 94.7961 83.9756 95.0367V93.1719C83.9756 91.2318 83.5695 89.8633 82.7724 89.0812C81.9603 88.2842 80.5767 87.9082 78.6066 87.9082C77.7043 87.9082 76.7869 88.0135 75.8394 88.2391C74.892 88.4646 73.9746 88.7504 73.0723 89.1113C72.7865 89.2467 72.4857 89.3519 72.1699 89.4422C72.0346 89.4873 71.8992 89.5023 71.7639 89.5174C71.4029 89.5174 71.2224 89.2617 71.2224 88.7203V87.4721C71.2224 87.066 71.2676 86.7502 71.4029 86.5697C71.5984 86.3441 71.839 86.1486 72.1248 86.0283C73.0271 85.5621 74.0949 85.1861 75.3431 84.8703C76.6515 84.5395 77.99 84.374 79.3435 84.3891C82.3965 84.3891 84.6223 85.0809 86.051 86.4645C87.4646 87.848 88.1715 89.9385 88.1715 92.7658V101.067L88.2015 101.052ZM77.8096 104.947C78.6517 104.947 79.524 104.797 80.4414 104.481C81.3588 104.18 82.1859 103.609 82.8777 102.842C83.2838 102.361 83.5996 101.819 83.75 101.203C83.9004 100.586 84.0056 99.8492 84.0056 98.9769V97.9092C83.2236 97.7137 82.4416 97.5783 81.6445 97.473C80.8474 97.3678 80.0353 97.3227 79.2383 97.3227C77.5238 97.3227 76.2605 97.6535 75.4183 98.3453C74.5762 99.0371 74.1701 100.015 74.1701 101.293C74.1701 102.496 74.4709 103.398 75.1176 104C75.7342 104.647 76.6215 104.947 77.8096 104.947ZM98.368 107.715C97.9017 107.715 97.601 107.639 97.3904 107.459C97.1799 107.309 96.9994 106.948 96.849 106.466L90.8334 86.675C90.7131 86.3441 90.6379 85.9982 90.6078 85.6523C90.6078 85.2463 90.8183 85.0057 91.2244 85.0057H93.7359C94.2172 85.0057 94.548 85.0809 94.7285 85.2613C94.939 85.4117 95.0894 85.7727 95.2398 86.2689L99.541 103.218L103.541 86.2689C103.677 85.7576 103.827 85.4268 104.023 85.2613C104.323 85.0658 104.684 84.9756 105.045 85.0057H107.106C107.587 85.0057 107.933 85.0809 108.128 85.2613C108.324 85.4117 108.519 85.7727 108.61 86.2689L112.655 103.429L117.092 86.2689C117.242 85.7576 117.422 85.4268 117.603 85.2613C117.904 85.0658 118.25 84.9756 118.595 85.0057H120.987C121.393 85.0057 121.633 85.2162 121.633 85.6523C121.633 85.7877 121.603 85.908 121.573 86.0584C121.528 86.284 121.468 86.4945 121.393 86.7051L115.227 106.496C115.076 107.008 114.896 107.339 114.685 107.489C114.4 107.67 114.054 107.76 113.708 107.745H111.497C111.016 107.745 110.685 107.67 110.474 107.489C110.279 107.309 110.098 106.978 109.993 106.466L106.023 89.9535L102.083 106.451C101.947 106.963 101.797 107.294 101.601 107.474C101.391 107.654 101.03 107.73 100.579 107.73L98.368 107.715ZM131.273 108.406C129.935 108.406 128.612 108.256 127.333 107.94C126.055 107.639 125.062 107.294 124.386 106.918C123.979 106.692 123.694 106.436 123.588 106.196C123.483 105.97 123.438 105.729 123.438 105.474V104.165C123.438 103.624 123.649 103.368 124.025 103.368C124.175 103.368 124.325 103.398 124.491 103.444C124.641 103.489 124.882 103.594 125.137 103.699C126.01 104.09 126.957 104.391 127.95 104.602C128.972 104.812 129.965 104.902 131.003 104.902C132.612 104.902 133.875 104.617 134.747 104.06C135.59 103.549 136.101 102.616 136.086 101.624C136.101 100.962 135.86 100.315 135.394 99.8342C134.928 99.3529 134.056 98.9168 132.807 98.4957L129.093 97.3377C127.228 96.7512 125.844 95.8789 125.002 94.7359C124.175 93.6682 123.724 92.3598 123.724 91.0213C123.724 89.9535 123.964 89.0061 124.416 88.1789C124.882 87.3668 125.483 86.6449 126.265 86.0734C127.032 85.4869 127.905 85.0508 128.927 84.735C129.95 84.4342 131.033 84.2988 132.161 84.2988C132.717 84.2988 133.319 84.3289 133.875 84.4041C134.462 84.4793 135.003 84.5846 135.545 84.6898C136.056 84.8252 136.552 84.9455 137.003 85.0959C137.47 85.2463 137.83 85.3967 138.086 85.5621C138.387 85.7125 138.658 85.9381 138.853 86.2088C139.019 86.4645 139.094 86.7502 139.079 87.051V88.2541C139.079 88.7955 138.868 89.0812 138.492 89.0812C138.146 89.0361 137.815 88.9309 137.515 88.7805C135.966 88.1037 134.296 87.7578 132.597 87.7879C131.138 87.7879 129.98 88.0135 129.183 88.5098C128.386 88.991 127.98 89.743 127.98 90.7807C127.98 91.5025 128.236 92.1191 128.747 92.6004C129.258 93.0816 130.206 93.5779 131.559 94.0141L135.199 95.157C137.033 95.7436 138.372 96.5707 139.169 97.6234C139.966 98.6762 140.342 99.8793 140.342 101.203C140.342 102.301 140.116 103.308 139.68 104.18C139.214 105.053 138.597 105.82 137.815 106.436C137.018 107.083 136.071 107.534 134.973 107.865C133.785 108.226 132.582 108.406 131.273 108.406ZM136.116 120.844C127.694 127.07 115.452 130.363 104.925 130.363C90.1717 130.363 76.8771 124.904 66.8461 115.836C66.049 115.114 66.7709 114.151 67.7183 114.708C78.5765 121.009 91.9763 124.829 105.827 124.829C115.182 124.829 125.438 122.889 134.898 118.889C136.296 118.257 137.5 119.821 136.116 120.844ZM139.62 116.858C138.537 115.475 132.492 116.197 129.754 116.528C128.942 116.633 128.807 115.911 129.559 115.37C134.371 111.986 142.282 112.963 143.214 114.091C144.132 115.249 142.959 123.16 138.447 126.95C137.755 127.536 137.094 127.235 137.394 126.468C138.417 123.927 140.703 118.212 139.62 116.858Z" fill="white"/>
</g>
<defs>
<clipPath id="clip0_613_526">
<rect width="154" height="154" fill="white" transform="translate(28 29)"/>
</clipPath>
</defs>
</svg>
