<svg width="350" height="350" viewBox="0 0 350 350" fill="none" xmlns="http://www.w3.org/2000/svg">
<g clip-path="url(#clip0_613_526)">
<path d="M175 325C257.843 325 325 257.843 325 175C325 92.1573 257.843 25 175 25C92.1573 25 25 92.1573 25 175C25 257.843 92.1573 325 175 325Z" fill="#FF9900"/>
<path d="M142.275 165.361C142.275 167.207 142.481 168.701 142.832 169.785C143.242 170.898 143.74 172.1 144.443 173.389C144.707 173.77 144.795 174.18 144.795 174.531C144.795 175.029 144.502 175.527 143.857 176.025L140.723 178.105C140.342 178.369 139.902 178.545 139.434 178.545C138.936 178.545 138.438 178.281 137.94 177.842C137.266 177.109 136.68 176.348 136.152 175.498C135.596 174.531 135.068 173.564 134.6 172.568C130.703 177.168 125.811 179.453 119.922 179.453C115.732 179.453 112.393 178.252 109.961 175.879C107.529 173.477 106.27 170.283 106.27 166.299C106.27 162.051 107.764 158.623 110.811 156.016C113.857 153.408 117.9 152.119 123.027 152.119C124.727 152.119 126.484 152.266 128.301 152.529C130.147 152.793 132.051 153.174 134.043 153.643V150.01C134.043 146.23 133.252 143.564 131.699 142.041C130.117 140.488 127.422 139.756 123.584 139.756C121.826 139.756 120.039 139.961 118.193 140.4C116.348 140.84 114.561 141.396 112.803 142.1C112.246 142.363 111.66 142.568 111.045 142.744C110.781 142.832 110.518 142.861 110.254 142.891C109.551 142.891 109.199 142.393 109.199 141.338V138.906C109.199 138.115 109.287 137.5 109.551 137.148C109.932 136.709 110.4 136.328 110.957 136.094C112.715 135.186 114.795 134.453 117.227 133.838C119.775 133.193 122.383 132.871 125.02 132.9C130.967 132.9 135.303 134.248 138.086 136.943C140.84 139.639 142.217 143.711 142.217 149.219V165.391L142.275 165.361ZM122.031 172.949C123.672 172.949 125.371 172.656 127.158 172.041C128.945 171.455 130.557 170.342 131.904 168.848C132.695 167.91 133.311 166.855 133.604 165.654C133.897 164.453 134.102 163.018 134.102 161.318V159.238C132.578 158.857 131.055 158.594 129.502 158.389C127.949 158.184 126.367 158.096 124.815 158.096C121.475 158.096 119.014 158.74 117.373 160.088C115.732 161.436 114.941 163.34 114.941 165.83C114.941 168.174 115.527 169.932 116.787 171.104C117.988 172.363 119.717 172.949 122.031 172.949ZM162.08 178.34C161.172 178.34 160.586 178.193 160.176 177.842C159.766 177.549 159.414 176.846 159.121 175.908L147.402 137.354C147.168 136.709 147.022 136.035 146.963 135.361C146.963 134.57 147.373 134.102 148.164 134.102H153.057C153.994 134.102 154.639 134.248 154.99 134.6C155.4 134.893 155.693 135.596 155.986 136.562L164.365 169.58L172.158 136.562C172.422 135.566 172.715 134.922 173.096 134.6C173.682 134.219 174.385 134.043 175.088 134.102H179.102C180.039 134.102 180.713 134.248 181.094 134.6C181.475 134.893 181.856 135.596 182.031 136.562L189.912 169.99L198.555 136.562C198.848 135.566 199.199 134.922 199.551 134.6C200.137 134.219 200.811 134.043 201.484 134.102H206.143C206.934 134.102 207.402 134.512 207.402 135.361C207.402 135.625 207.344 135.859 207.285 136.152C207.197 136.592 207.08 137.002 206.934 137.412L194.922 175.967C194.629 176.963 194.277 177.607 193.867 177.9C193.311 178.252 192.637 178.428 191.963 178.398H187.656C186.719 178.398 186.074 178.252 185.664 177.9C185.283 177.549 184.932 176.904 184.727 175.908L176.992 143.74L169.316 175.879C169.053 176.875 168.76 177.52 168.379 177.871C167.969 178.223 167.266 178.369 166.387 178.369L162.08 178.34ZM226.182 179.687C223.574 179.687 220.996 179.395 218.506 178.779C216.016 178.193 214.082 177.52 212.764 176.787C211.973 176.348 211.416 175.85 211.211 175.381C211.006 174.941 210.918 174.473 210.918 173.975V171.426C210.918 170.371 211.328 169.873 212.061 169.873C212.354 169.873 212.647 169.932 212.969 170.02C213.262 170.107 213.731 170.313 214.229 170.518C215.928 171.279 217.773 171.865 219.707 172.275C221.699 172.686 223.633 172.861 225.654 172.861C228.789 172.861 231.25 172.305 232.949 171.221C234.59 170.225 235.586 168.408 235.557 166.475C235.586 165.186 235.117 163.926 234.209 162.988C233.301 162.051 231.602 161.201 229.17 160.381L221.934 158.125C218.301 156.982 215.606 155.283 213.965 153.057C212.354 150.977 211.475 148.428 211.475 145.82C211.475 143.74 211.943 141.895 212.822 140.283C213.731 138.701 214.902 137.295 216.426 136.182C217.92 135.039 219.619 134.189 221.611 133.574C223.604 132.988 225.713 132.725 227.91 132.725C228.994 132.725 230.166 132.783 231.25 132.93C232.393 133.076 233.447 133.281 234.502 133.486C235.498 133.75 236.465 133.984 237.344 134.277C238.252 134.57 238.955 134.863 239.453 135.186C240.039 135.479 240.566 135.918 240.947 136.445C241.27 136.943 241.416 137.5 241.387 138.086V140.43C241.387 141.484 240.977 142.041 240.244 142.041C239.57 141.953 238.926 141.748 238.34 141.455C235.322 140.137 232.07 139.463 228.76 139.521C225.918 139.521 223.662 139.961 222.109 140.928C220.557 141.865 219.766 143.33 219.766 145.352C219.766 146.758 220.264 147.959 221.26 148.896C222.256 149.834 224.102 150.801 226.738 151.65L233.828 153.877C237.402 155.02 240.01 156.631 241.563 158.682C243.115 160.732 243.848 163.076 243.848 165.654C243.848 167.793 243.408 169.756 242.559 171.455C241.65 173.154 240.449 174.648 238.926 175.85C237.373 177.109 235.527 177.988 233.389 178.633C231.074 179.336 228.731 179.687 226.182 179.687ZM235.615 203.916C219.209 216.045 195.361 222.461 174.854 222.461C146.113 222.461 120.215 211.826 100.674 194.16C99.1212 192.754 100.527 190.879 102.373 191.963C123.525 204.238 149.629 211.68 176.611 211.68C194.834 211.68 214.815 207.9 233.242 200.107C235.967 198.877 238.311 201.924 235.615 203.916ZM242.441 196.152C240.332 193.457 228.555 194.863 223.223 195.508C221.641 195.713 221.377 194.307 222.842 193.252C232.217 186.66 247.627 188.564 249.443 190.762C251.231 193.018 248.945 208.428 240.156 215.811C238.809 216.953 237.52 216.367 238.106 214.873C240.098 209.922 244.551 198.789 242.441 196.152Z" fill="white"/>
</g>
<defs>
<clipPath id="clip0_613_526">
<rect width="300" height="300" fill="white" transform="translate(25 25)"/>
</clipPath>
</defs>
</svg>
